<?xml version="1.0" encoding="utf-8"?>
<!-- Generator: Adobe Illustrator 19.2.1, SVG Export Plug-In . SVG Version: 6.00 Build 0)  -->
<svg version="1.1" id="layer" xmlns="http://www.w3.org/2000/svg" xmlns:xlink="http://www.w3.org/1999/xlink" x="0px" y="0px"
	 viewBox="0 0 652 652" style="enable-background:new 0 0 652 652;" xml:space="preserve">
<style type="text/css">
	.st0{fill:#5F259F;}
</style>
<path class="st0" d="M191.1,315.6C191.1,315.6,191.3,315.6,191.1,315.6C191.3,315.6,191.3,315.6,191.1,315.6 M26.7,314.5
	c-0.2,0.2,0,0.2,0.2,0.2c0.2,0,0.4,0,0.4,0.2c3.5,0.9,7.1,2,10.4,2.9c0.2,0,0.2,0.2,0.4,0C34.2,316.9,30.6,315.6,26.7,314.5
	L26.7,314.5 M243.8,343.6c-10-1.6-35.2-1.6-50.7-1.5c-0.9-0.4-1.6-0.7-2.5-1.3c-6.5-3.1-13.3-6.2-19.8-9.3c1.1-1.1,2.2-2,3.5-3.1
	l0,0c9.8,3.6,25.1,8.9,35.1,12.4l0,0l0,0l0,0c0.7,0.2,2.2-1.1,2.7-3.1s0.4-3.8-0.4-4.2c0,0-22.5-7.8-31.1-10.9
	c4.5-4,9.3-7.8,13.8-11.8s9.3-7.8,13.8-11.6c2.4-2,4.7-3.8,7.1-5.8c4.7-3.8,9.4-7.6,14.5-11.1c1.3-0.9,2.5-1.8,3.8-2.5
	c0.9-0.5,1.6-1.1,2.5-1.5c0.5-0.4,1.1-0.5,1.6-0.7l0,0c0-0.2-0.2,0,0-0.2c0,0,0.2-0.2,0.4-0.2c0-0.4,0.2-0.9,0-1.3
	c-0.4,0-0.5,0.2-0.9,0.2V276c-1.3,0.7-2.5,1.3-3.8,2c-0.2,0.2-0.5,0.2-0.7,0.4c0,0-0.2,0-0.2,0.2c-1.8,0.9-3.6,1.8-5.4,2.7
	c-1.6,0.9-3.5,1.6-5.1,2.5c-1.6,0.9-3.3,1.6-5.1,2.5c-6.7,3.6-13.3,7.1-19.8,10.7c0.7-0.5,1.5-1.3,2.2-1.6c0.9-0.5,1.6-0.9,2.5-1.5
	c5.1-2.7,10-5.6,15.1-8.4c3.5-1.8,6.7-3.6,10.2-5.4c2.9-1.5,6-3.1,9.1-4.5c0.4-0.2,0.9-0.5,1.5-0.4c0,0,0.2,0,0.2,0.2
	c0.2,0.2,0.4,0.2,0.5,0.4c0.2,0.4,0.4,1.1,0.2,1.6c0,0.2-0.2,0.2-0.4,0.4L238,278c-0.2,0.2-0.4,0.2-0.4,0.2
	c-0.9,0.5-1.6,0.9-2.5,1.5c-1.6,1.1-3.3,2.2-4.7,3.3c-0.5,0.4-1.1,0.7-1.6,1.1c-3.1,2.2-6.2,4.5-9.1,6.9c-2,1.6-4,3.3-6,4.9
	c-0.4,0.4-0.9,0.7-1.3,1.1c-4.4,3.6-8.5,7.4-12.9,11.1c-2.9,2.5-5.6,4.9-8.5,7.4l0,0c6.9-5.8,13.8-11.4,20.7-17.1
	c-5.6,4.7-11.3,9.4-16.7,14.3l0,0c0.7-0.5,1.5-1.1,2.2-1.6c-2.2,2.2-4.5,4.2-6.7,6.4c-1.8,1.6-3.5,3.1-5.1,4.7
	c-0.5,0.4-1.1,0.9-1.5,1.5l-0.2,0.2c0.7-0.5,1.3-1.1,1.8-1.5c3.1-2.5,6-5.3,9.1-7.8c2.4-2,4.9-4.2,7.3-6.2c1.3-1.1,2.5-2,3.6-3.1
	c0,0,0,0,0.2-0.2s0.2-0.2,0.4-0.4c2.4-2,4.5-3.8,6.9-5.8c3.6-3.1,7.4-6,11.3-8.9c2-1.5,3.8-2.9,5.8-4.4c0.7-0.5,1.3-0.9,2-1.5
	c2-1.5,4-2.7,6.2-3.8c0.7-0.4,1.5-0.7,2-1.5c0.4-0.7,0.7-1.6,0.5-2.7c-0.2-0.9-0.5-1.6-1.3-2c0.4,0.4,0.7,0.7,0.9,1.3
	s0.4,1.1,0.4,1.8c0,0.2-0.2,0.5-0.2,0.7c-0.2,0.5-0.5,0.9-0.9,1.3c-0.2,0.2-0.4,0.4-0.7,0.5c-0.5,0.4-0.9,0.5-1.5,0.7
	c-1.5,0.7-2.9,1.6-4.2,2.4c-0.9,0.5-1.8,1.3-2.7,1.6c1.8-1.6,4-3.1,6.4-4.4c0.5-0.4,1.1-0.7,1.6-0.9c0.5-0.4,1.1-0.7,1.3-1.5
	c0.4-0.7,0.2-1.6,0-2.2c-0.4-0.5-0.7-1.1-1.5-1.3c0.9-0.4,1.8-0.9,2.7-1.5c0.5-0.4,1.3-0.7,1.8-1.3c0.2-0.2,0.4-0.4,0.5-0.5
	c0.4-0.4,0.5-0.7,0.7-1.3c0.2-0.4,0.4-0.9,0.4-1.5c0-0.5-0.2-1.1-0.4-1.6c-0.2-0.5-0.4-0.9-0.7-1.3c-0.5-0.7-1.3-1.3-2.4-1.5
	c-0.5-0.2-1.1-0.2-1.6-0.2c-5.1,0.5-9.1,2.2-13.3,3.6c0.7-0.2,1.8-0.7,2.7-0.9c-2.7,1.1-5.6,2.2-8.4,3.3c-1.6,0.7-3.1,1.6-4.4,2.5
	c1.3-1.1,2.5-2.2,3.8-3.5c1.1-1.1,2.2-2.5,3.3-3.8c0.5-0.5,0.9-1.3,1.5-2s0.9-1.5,1.1-2.4c0.2-0.5,0.2-1.3,0-1.6s-0.4-0.7-0.7-1.1
	c-0.2-0.4-0.5-0.5-0.9-0.7c-0.4-0.2-0.7-0.5-1.3-0.5c-0.2,0-0.5,0-0.7,0.2c-1.3,0.2-2.2,0.7-3.1,1.5c-0.4,0.2-0.7,0.5-1.1,0.7
	c-2.9,2-5.3,4.2-7.8,6.4c-3.8,3.3-7.6,6.7-11.4,10c-3.6,3.3-7.3,6.4-10.9,9.6c-0.2,0.2-0.4,0.4-0.5,0.4c-5.1,4.4-10.2,8.9-15.3,13.3
	c-3.8,3.3-7.6,6.7-11.4,10c2.7-2.7,5.4-5.4,8.4-8c0.7-0.7,1.5-1.3,2-2c0.7-0.7,1.3-1.5,2-2c0.7-0.7,1.5-1.3,2-2c0.7-0.7,1.5-1.3,2-2
	c5.4-5.4,10.9-10.9,16.3-16.2c6.7-6.7,13.6-13.6,20.3-20.3c1.1-1.1,2-2,2.9-3.1c0.4-0.4,0.7-0.7,0.9-1.1c0.5-0.9,0.9-1.8,0.9-2.7
	c0-0.4,0-0.5,0-0.9c0-0.7-0.5-1.3-0.9-1.8c-0.2-0.2-0.2-0.2-0.4-0.4c-0.4-0.4-0.9-0.5-1.5-0.5c-0.5-0.2-1.3,0-1.8,0.2
	c-1.1,0.4-1.8,0.7-2.7,1.3c0,0-1.1,0.7-1.5,1.1c0.4-0.4,0.9-0.7,1.3-1.1c0,0,0,0,0-0.2l0,0c0.9-1.1,1.3-2.5,0.4-3.3
	c-0.7-0.9-2.4-0.7-3.6,0.2c-0.2,0.2-0.5,0.5-0.7,0.7c-1.8,2-3.5,3.8-5.3,5.6c-0.5,0.5-0.9,1.1-1.6,1.6c-1.6,1.5-3.3,2.9-4.9,4.4
	c-1.1,0.9-2.2,2-3.3,2.9c-1.1,0.9-2.2,2-3.3,2.9c-1.6,1.5-3.3,2.9-4.9,4.4c-0.5,0.5-1.1,0.9-1.6,1.5c1.5-1.1,2.7-2,4.2-2.9
	c-2.4,2.2-4.9,4.2-7.4,6.4c-2.5,2.2-4.9,4.4-7.4,6.4c-4.9,4.2-9.6,8.5-14.3,12.7l-0.2,0.2c0-3.3-0.2-9.4-0.2-9.8s-0.9-0.7-2-0.7
	c-0.4,0-0.5,0-0.9,0c0.2-4.7,0.2-9.6,0.4-14.3l0,0c0-1.1-1.3-1.8-2.9-1.8H151h-0.2c-0.2,0-0.4,0-0.4,0c-0.2,0-0.2,0-0.4,0.2
	c-0.2,0-0.2,0.2-0.4,0.2c-0.2,0-0.2,0.2-0.4,0.2s-0.2,0.2-0.4,0.2l-0.2,0.2c0,0-0.2,0.2-0.2,0.4c0,0.2,0,0.2-0.2,0.4
	c0,0.2,0,0.2,0,0.4c0,0,0,0,0,0.2c0,0,0,0,0,0.2v0.2c0,0,0,0,0,0.2c0,0,0,0,0,0.2c0,0,0,0,0,0.2c0,0,0,0,0,0.2c0,0,0,0,0,0.2
	c0,0,0,0,0,0.2v0.2v0.2v0.2v0.2v0.2v0.2v0.2v0.2v0.2v0.2v0.2v0.2v0.2v0.2c0,0.2,0,0.2,0,0.4c0,0.2,0,0.2,0,0.4c0,0.2,0,0.2,0,0.4
	c0,0.2,0,0.2,0,0.4c0,0.2,0,0.2,0,0.4v0.4c0,0.2,0,0.2,0,0.4s0,0.2,0,0.4c0,0.2,0,0.2,0,0.4c0,0.2,0,0.2,0,0.4c0,0.2,0,0.2,0,0.4
	c0,0.2,0,0.2,0,0.4c0,0.2,0,0.2,0,0.4c0,0.2,0,0.2,0,0.4c0,0.2,0,0.2,0,0.4c0,0.2,0,0.2,0,0.4v0.4c0,0.2,0,0.2,0,0.4v0.4
	c0,0.2,0,0.2,0,0.4v0.4c0,0.2,0,0.2,0,0.4c0,0.2,0,0.2,0,0.4v0.4c0,0.2,0,0.2,0,0.4c0,0.2,0,0.2,0,0.4c0,0.2,0,0.2,0,0.4
	c0,0.2,0,0.2,0,0.4c0,0.2,0,0.2,0,0.4c0,0.2,0,0.2,0,0.4c0,0.2,0,0.2,0,0.4c0,0.2,0,0.2,0,0.4c0,0.2,0,0.2,0,0.4c0,0.2,0,0.2,0,0.4
	s0,0.2,0,0.4c0,0.2,0,0.2,0,0.4c0,0.2,0,0.2,0,0.4v0.4c0,0.2,0,0.2,0,0.4c0,0.2,0,0.2,0,0.4c0,0.2,0,0.2,0,0.4c0,0.2,0,0.2,0,0.4
	c0,0.2,0,0.2,0,0.4c0,0.2,0,0.2,0,0.4c0,0.2,0,0.2,0,0.4c0,0.2,0,0.2,0,0.4c0,0.2,0,0.2,0,0.4c0,0.2,0,0.2,0,0.4c0,0.2,0,0.2,0,0.4
	c0,0.2,0,0.2,0,0.4c0,0.2,0,0.2,0,0.4c0,0.2,0,0.2,0,0.4c0,0.2,0,0.2,0,0.4c0,0.2,0,0.2,0,0.4c0,0.2,0,0.2,0,0.4c0,0.2,0,0.2,0,0.4
	c0,0.2,0,0.2,0,0.4c0,0.2,0,0.2,0,0.4v0.2l0,0l0,0l0,0c-0.4-0.7-0.7-1.3-0.9-2c-0.2-0.2-0.4-0.5-0.4-0.7c-0.2-1.3-0.2-2.7-0.2-4
	c0-1.3-0.2-2.7-0.2-4c-0.2-2.7-0.4-5.3-0.4-8c-0.4-7.3-0.9-14.5-1.1-22c0-0.4,0-0.7,0-0.9c0-0.4,0-0.7,0.2-0.9
	c0.7-7.4,2.4-22.2,2.4-22.5c0-2.9-1.5-5.3-3.5-5.4c-2,0-3.6,2.2-3.8,5.1c0,0.5,0.5,10.9,0.9,16.3c0,0.4,0.2,0.9,0,1.3
	c0,0.7-0.2,1.6-0.4,2.4c-0.5-4-1.3-8-2-12c-0.7-3.8-1.5-7.6-2.4-11.4c-0.4-2-1.1-4-2.2-5.6c0.5-2.7-1.1-4.5-3.1-4.9
	c-1.8-0.4-3.3,0.2-4.4,1.1c-1.3,0.9-2.4,2.9-2.5,4.4c-0.4,2,0,4,0.4,6c0.7,4.7,1.1,9.4,1.6,14.2c0.4,2.7,0.7,5.3,0.9,8
	c-0.7-1.3-1.3-2.5-1.8-4c-4.2-9.3-8.5-18.7-12.9-28c-0.2,0,0,0,0,0l0,0c1.8,4.2,3.8,8.4,5.6,12.7c-2.2-4-4-8.4-6-12.5
	c-1.3,0.5-2.4,1.1-3.6,1.6c0.2,0,0,0,0,0c5.3,12.2,10.5,24.2,15.8,36.3c1.6,3.8,3.3,7.6,4.9,11.4c0.2,0.2,0.2,0.5,0.4,0.7
	c-4.2-8.9-8.4-18-12.5-26.9l0,0c3.1,6.7,6,13.4,8.9,20.2c0,0.2,0.2,0.4,0.2,0.7c-3.8-8.2-7.8-16.2-11.6-24.3c0-0.2,0-0.2-0.2-0.2
	c-0.4,0.2-0.5,0.2-0.7,0.4c-2.5-6-7.3-17.4-7.4-17.8c-1.3-2.5-3.6-4-5.6-3.3c-2.2,0.4-2.5,3.1-2.2,5.1c0.4,1.5,0.9,2.9,1.5,4.4
	c0.5,1.5,1.1,3.1,1.8,4.5c0.2,0.4,0.4,0.7,0.4,1.3c0.2,0.4,0.2,0.9,0.5,1.3c-1.1-1.5-2.5-2.2-3.6-1.8c-1.5,0.5-1.8,2.9-1.3,5.3
	c-1.1-1.5-2.4-2.2-3.5-1.6c-1.5,0.5-1.8,3.1-0.7,5.8c0,0,0,0.2,0.2,0.2c0.2,0.2,0.2,0.4,0.4,0.7c1.1,2.7,2.2,5.4,3.3,8.2
	c-0.9-1.5-1.6-2.9-2.5-4.4c-0.2-0.4-0.4-0.5-0.5-0.7c-0.5-0.5-1.3-0.7-2-0.4c-0.5,0.4-1.1,0.9-1.1,1.6c0,0.4,0.2,0.7,0.2,1.1
	c0.2,0.4,0.4,0.7,0.4,0.9c1.6,4,3.3,7.6,4.9,11.6c3.3,7.8,6.5,15.4,10,23.2c2.2,4.7,4.2,9.6,6.4,14.3c0.2,0.4,0.4,0.5,0.4,0.9
	c-2.5-5.3-4.9-10.5-7.4-15.8c3.1,7.1,6.2,14.3,9.3,21.3c0.2,0.2,0.2,0.4,0.2,0.7c-0.5-0.2-0.9-0.2-1.3-0.4c-0.4-0.2-0.9-0.2-1.3-0.4
	c-0.4-0.2-9.3-4.5-10-4.9c-2.4-1.3-30.7-13.3-31.8-13.8c-0.2,0-0.4-0.2-0.4-0.2c-3.5-1.5-4.4,1.8-4,2.7c-1.1-0.4-2.4-0.9-3.6-1.3
	c-1.3-0.4-3.6-1.3-3.6-1.3c-0.5-0.2-1.5,0.5-1.8,1.6c-0.2,0.5-0.4,1.3-0.2,1.6c-1.5-0.4-2.9-0.7-4.2-1.3c-0.7-0.2-1.5-0.5-2.4-0.7
	c-0.7-0.2-1.6-0.4-2.5-0.5s-1.8-0.4-2.7-0.2c-0.9,0.2-2,0.4-2.7,1.1c-0.7,0.7-0.7,1.8-0.5,2.9c0.2,0.9,0.7,1.8,1.3,2.7
	c0.2,0.2,0.4,0.5,0.5,0.7c0.2,0.2,0.4,0.4,0.5,0.7c0.2,0.2,0.5,0.5,0.7,0.7c0.4,0.2,0.5,0.5,0.9,0.7c0.4,0.2,0.7,0.4,1.1,0.7
	c0.4,0.2,0.7,0.5,1.3,0.7c0.4,0.2,0.9,0.5,1.5,0.7c0.5,0.2,1.1,0.4,1.6,0.5c0.5,0.2,1.1,0.4,1.8,0.5c0.2,0,0.4,0.2,0.4,0.2
	c-0.7-0.2-1.3-0.2-2-0.4c-0.4,1.6-1.1,3.8-1.1,3.8l0,0c0,0,27.1,11.6,40.9,17.3c-8-2.5-16.2-5.1-24.2-7.6c-2.7-0.9-5.4-1.6-8-2.5
	c-5.3-1.6-11.1-3.1-17.3-4c-1.6-0.2-3.3-0.4-4.9-0.4c-0.7,0-1.6-0.2-2.4-0.4c-0.7-0.2-1.6-0.2-2.4-0.4c-0.4,0-0.7,0-1.1-0.2
	s-0.7-0.2-1.1-0.4c-1.6-0.5-3.5-1.1-5.1-1.6c-0.4,0-0.5-0.2-0.9-0.2h-0.2c-1.1-0.2-2.2,0.9-2.5,2.4c-0.4,1.5,0.4,2.9,1.3,3.1h0.2
	h0.2c2.5,0.4,4.9,0.5,7.3,0.9c0.5,0,1.1,0.4,1.6,0.5c1.6,0.5,3.5,1.1,5.1,1.6c-0.4,0.7-0.5,1.6-0.7,2.4c-0.2,0.5-0.4,1.3-0.5,1.8
	c0,0.2,0,0.2-0.2,0.4c1.8,0.5,3.6,1.1,5.4,1.6c12.9,3.8,25.8,7.6,38.5,11.4c-0.4,1.1-0.7,2.2-1.1,3.3c-4-1.3-8-2.7-12-4.2
	c-2-0.7-4-1.5-6-2c-4-1.3-8.4-2.9-12.4-4.2c0,0-0.4-0.2-0.2,0c0.2,0.2,0.5,0.2,0.7,0.4c3.5,1.3,6.9,2.4,10.4,3.6
	c1.6,0.5,3.5,1.3,5.1,1.8c0.2,0,0.5,0.2,0.7,0.4c-1.6-0.4-3.3-0.9-4.9-1.5c-3.3-0.9-6.4-2-9.6-2.9c-1.6-0.5-3.3-1.1-4.7-1.6
	c-1.8-0.5-3.5-1.3-5.3-1.8c-0.9-0.4-2.5-0.9-4.5-1.6c-2-1.3-4.9-2.4-7.6-3.3c-0.2,0-0.4-0.2-0.5-0.2c-0.9-0.2-1.8,0.5-2.2,1.8
	s0,2.4,0.9,2.7c0.2,0,0.4,0,0.4,0c0.4,0,0.4,0.2,0.7,0.2c6.7,1.8,13.3,3.8,19.8,5.6c0.7,0.2,1.5,0.4,2,0.5c3.3,1.1,6.7,2.4,9.8,3.5
	c-1.6-0.4-3.3-0.9-4.9-1.3l0,0c2.2,0.5,4.2,1.1,6.4,1.8c1.1,0.4,2,0.7,2.9,1.1c1.1,0.4,2,0.7,2.9,1.1c4,1.5,8,2.7,12,4.2
	s8,2.7,12,4.2c4,1.3,8,2.7,12,4.2c-9.8,8.9-19.8,17.8-28.7,27.8c-1.6,1.8-3.3,3.8-4.7,5.8c-0.2,0.2-0.4,0.5-0.5,0.7
	c-0.4,0.4-0.9,0.7-1.3,1.1c0,0-2.2,1.6-2.5,2.2c-0.4,0.5,0.2,1.8,1.3,2.5s2.4,0.9,2.9,0.4l0,0l0,0l0,0l0,0c0.5-1.1,1.3-2,1.8-3.1
	c0.2-0.2,0.4-0.5,0.5-0.7s0.4-0.4,0.7-0.5c0.5-0.4,0.9-0.7,1.5-1.1c12.9-10.4,25.6-20.5,38.5-31.1c0.2-0.2,0.5-0.5,0.7-0.5l0.4,0.2
	c0.4,0.2,0.9,0.4,1.3,0.4c-3.1,3.3-6.2,6.5-9.1,10c-0.7,0.9-1.5,1.6-2.4,2.5c-1.5,1.6-3.1,3.3-4.5,5.1c-0.7,0.9-1.5,1.6-2.2,2.5
	c0.2,0,0.4-0.4,0.5-0.4c-5.4,5.8-16.7,17.1-16.7,17.1c0.4,0.4,0.5,0.5,0.9,0.9c-2.5,2.4-5.3,4.9-8,7.3c0.2,0.2,0.5,0.5,0.7,0.7
	c-1.1,0.9-2.2,1.8-3.3,2.7c-0.2,0.2-0.5,0.4-0.5,0.4c-0.5,0.5-0.2,2,0.9,3.3c0.9,1.1,2,1.8,2.7,1.6l0,0c-1.8,1.8-4,3.8-5.8,5.6
	c-0.2,0.2-0.7,0.7-0.9,0.9c-0.5,0.7-0.9,2.5-0.5,3.6c0,0.2,0.2,0.7,0.5,0.9c-1.5,1.3-2.9,2.4-4.4,3.6c-0.2,0.2-0.4,0.4-0.4,0.4
	c-0.4,0.5-0.2,1.5,0.5,2.4c0.7,0.9,1.8,1.5,2.4,1.1l0,0c0,0.4,0,0.9,0.4,1.5c0.5,0.7,1.1,1.1,1.6,0.9c0.2,0,0.2,0,0.2,0
	c0.2,0,0.2-0.2,0.2-0.2c5.1-4,10-8,14.9-12c1.6-1.3,3.5-2.7,5.1-4c-1.6,2.2-3.1,4.5-4.7,6.5c-0.2,0.2-0.4,0.4-0.5,0.5
	c-0.7,0.7-1.5,1.3-2,2c-1.5,1.5-2.7,2.7-4.2,4c-1.1,1.1-2.4,2.4-3.5,3.5c-0.2,0.2-0.7,0.5-0.7,0.5c-1.1,1.3-1.1,3.1,0,4.2l0,0
	c0,0,0,0,0.2,0c0,0,0.2,0,0.2,0.2c0,0,0.2,0,0.2,0.2h0.2h0.2h0.2h0.2h0.2h0.2h0.2H74h0.2h0.2h0.2c0,0,0.2,0,0.2-0.2
	c0,0,0.2,0,0.2-0.2c0,0,0.2,0,0.2-0.2l0.2-0.2l0.2-0.2l0.2-0.2l0,0c0,0,0,0,0-0.2c0,0,0,0,0-0.2c0,0,0,0,0.2-0.2c0,0,0-0.2,0.2-0.2
	c0,0,0-0.2,0.2-0.2c0,0,0-0.2,0.2-0.2l0.2-0.2l0.2-0.2l0.2-0.2l0.2-0.2l0.2-0.2l0.2-0.2c0-0.2,0.2-0.2,0.2-0.4
	c0-0.2,0.2-0.2,0.2-0.4c0-0.2,0.2-0.2,0.2-0.4s0.2-0.2,0.2-0.4c0-0.2,0.2-0.2,0.2-0.4c0-0.2,0.2-0.2,0.2-0.4c0-0.2,0.2-0.2,0.2-0.4
	s0.2-0.2,0.2-0.4c0-0.2,0.2-0.2,0.2-0.4c0-0.2,0.2-0.2,0.2-0.4c0-0.2,0.2-0.2,0.2-0.4s0.2-0.2,0.2-0.4c0-0.2,0.2-0.2,0.2-0.4
	c0-0.2,0.2-0.2,0.2-0.4c0-0.2,0.2-0.2,0.2-0.4s0.2-0.2,0.2-0.4c0-0.2,0.2-0.2,0.2-0.4c0-0.2,0.2-0.2,0.2-0.4s0.2-0.2,0.2-0.4
	c0-0.2,0.2-0.2,0.2-0.4c0-0.2,0.2-0.2,0.2-0.4c0-0.2,0.2-0.2,0.2-0.4s0.2-0.2,0.2-0.4c0-0.2,0.2-0.2,0.2-0.4c0-0.2,0.2-0.2,0.2-0.4
	c0-0.2,0.2-0.2,0.2-0.4s0.2-0.2,0.2-0.4c0-0.2,0.2-0.2,0.2-0.4c0.5-0.7,1.1-1.6,1.8-2.2s1.3-1.3,2-2c2-2,4-3.8,6-5.8
	c2-2,4-3.8,6-5.8c0.7-0.7,1.3-1.3,2-2c1.3-1.3,2.7-2.5,4-3.8c0.7-0.7,1.3-1.3,2-2c1.3-1.3,2.7-2.5,4-3.8c2-2,4-3.8,6-5.8
	c0.4-0.4,0.7-0.7,0.9-0.9c0.9-0.9,2-2,3.1-2.9c0.7-0.7,1.3-1.3,2-2c0.4-0.4,0.7-0.5,1.1-0.9c2.2-1.8,4.4-3.6,6.5-5.3
	c2.5-2,5.1-4.2,7.6-6.2c-17.8,18.3-35.6,36.7-53.2,55.2l-0.2,0.2c0,0,0,0-0.2,0.2c0,0,0,0,0.2-0.2c4.9-4.9,10-9.8,14.9-14.7
	c3.1-3.1,6.2-6.2,9.3-9.3c1.8-1.8,3.6-3.8,5.4-5.6c2.5-2.5,4.9-5.1,7.3-7.4c4.9-4.9,9.8-10,14.7-14.9c2.4-2.4,4.7-4.7,7.1-7.1
	c0,0,0.2-0.2,0.4-0.4c0.2,0.4,0.4,0.7,0.5,1.1c0.2,0.4,0.2,0.7,0.2,1.1c0.2,0.9,0.4,1.8,0.5,2.7c0.9,8,2.2,19.8,2.4,20.7
	c0.4,3.1,0.9,6.4,1.5,9.4c1.1,7.3,6.2,36,7.1,37.8c0.4,0.9,1.3,2,2.4,2c1.1,0.2,2.4-1.1,2.5-2.2c0.2-1.5-0.4-2.9-0.4-4.4
	c0-3.6,0-7.3,0-10.9c0-1.1,0-2.2,0-3.3c0-2-0.2-4-0.4-6c-0.4-4-0.9-8-1.5-12c-0.2-1.1-0.7-7.4-0.7-8.4c6.4,12.4,19.1,37.2,19.1,37.2
	c0.4,0.4,1.3,0.4,2.5,0c1.1-0.5,2-1.3,1.8-1.8l0,0c-5.1-12.5-10.2-25.2-15.3-37.6c3.5,4.4,6.7,8.9,10,13.4c0.2,0.4,0.4,0.5,0.5,0.9
	c0.2,0.4,0.4,0.7,0.4,1.1c2,4.9,4.2,9.6,6.4,14.2c-2.7-4.7-5.1-9.6-7.3-14.7l0,0c1.5,3.5,2.7,6.9,4.2,10.4c1.5,3.3,3.3,6.5,5.1,9.4
	c0.9,1.5,1.8,2.9,2.9,4.4c0.7,0.9,1.8,2,2.7,2.7c0.9,0.7,2.5,1.5,4.2,1.1c0.9-0.2,1.6-0.7,2.2-1.5c0.5-0.7,0.9-1.6,0.7-2.7
	c0-1.1-0.4-2-0.7-2.9c1.1-0.4,2-0.9,3.1-1.5c0.2,0,0.4,0,0.4-0.2c-2-4.2-4.2-8.5-6-12.7c-2-4.2-4.2-8.5-6-12.7c-2-4.2-4-8.5-6-12.7
	c-2-4.2-4.2-8.4-6.2-12.5c0.7,0.4,1.6,0.5,2.4,0.7c8.9,18.5,18,36.9,27.1,55.2l0,0c-8.5-18.3-17.1-36.5-25.6-54.7
	c9.6,3.1,19.3,6.4,29.1,9.4l0,0c-4.9-1.8-9.8-3.5-14.7-5.3c-4.9-1.8-9.8-3.5-14.7-5.1l0,0c-0.5-1.1-1.1-2.4-1.6-3.5
	c4.4,1.5,8.7,2.7,13.1,4.2c0.5,0.2,1.3,0.4,1.8,0.5c6.4,2,12.7,3.8,19.1,5.6c1.3,0.4,2.5,0.7,3.8,1.3c2.5,0.7,4.9,1.6,7.4,2.4
	c2.5,0.9,4.9,1.6,7.3,2.5c1.8,0.7,3.6,1.3,5.4,2c0.5,0.4,1.3,0.7,1.3,0.7c0.2,0,0.2,0,0.4,0l0,0l0,0c1.3,0,3.1-2.4,4-5.4
	c1.1-3.5,0.7-6.7-0.5-7.1c0,0-0.7-0.2-0.9-0.2c0.4-1.5,0.2-2.7-0.7-2.9c0,0-20.7-6.7-30.7-9.8c-1.5-0.4-2.9-0.9-4.4-1.3
	c-5.6-1.8-11.4-3.6-17.1-5.3c0.5,0,1.3,0,1.8,0c1.1,0.4,9.1,2.9,11.4,3.6c4.2,1.3,8.2,2.5,12.2,3.8c3.8,1.3,11.6,3.8,11.8,3.8
	c0,0,0.2,0,0.4,0c0.4-0.2,0.7-0.5,0.9-1.1c0.2-0.7,0.2-1.3,0-1.6c0,0,0-0.2-0.2-0.2s-0.2,0-0.2,0c-1.1-0.4-2.2-0.7-3.3-1.1
	c-3.8-1.3-7.6-2.5-11.4-4c-2.5-0.9-5.1-1.8-7.6-2.5c-0.9-0.4-1.8-0.5-2.7-0.9C227.3,347.2,254,345.4,243.8,343.6 M78.7,329.2
	c-1.5-0.4-2.9-0.9-4.4-1.3c0.4,0,0.7,0.2,1.1,0.4c0.7,0.2,1.5,0.4,2.4,0.7c0.4,0.2,0.7,0.2,1.1,0.4
	C78.9,329.2,78.7,329.2,78.7,329.2 M143.3,275.8c0-0.5,0.2-1.3,0.2-1.8c0.2-0.9,0.2-1.6,0.4-2.5c0.4,2.2,0.5,4.5,1.1,6.7
	c0.2,0.7,0.2,1.5,0.2,2.2c-0.5-1.1-1.1-2.2-1.6-3.5c0-0.2-0.2-0.4-0.2-0.5C143.3,276.2,143.3,276,143.3,275.8 M142.6,281.4
	c0-0.4,0.2-1.1,0.2-1.5c0.7,1.5,1.5,3.1,2.2,4.5c0.2,0.2,0.2,0.4,0.4,0.5c0,0.2,0,0.5,0,0.7c0,0.7,0,1.5,0.2,2.4
	c-0.9-1.8-1.8-3.8-2.7-5.8C142.6,282,142.6,281.8,142.6,281.4 M141.7,258c-0.2,1.3-0.4,2.7-0.4,4c-0.2,2-0.4,3.8-0.5,5.6
	c0.4-3.3,0.9-6.7,1.3-10c0.2,0.5,0,1.5,0,2.2c-0.4,3.6-0.7,7.4-1.1,11.1c-0.2-0.4-0.4-0.7-0.5-1.1c0-0.2-0.2-0.4-0.2-0.4
	c0-0.2,0-0.5,0.2-0.9c0.5-4.2,1.1-8.5,1.5-12.5C141.9,256.6,141.7,257.3,141.7,258 M134.4,264.2c-0.2-0.9-0.2-1.8-0.4-2.7
	c1.8,3.6,3.5,7.3,5.3,10.7c0,0.5-0.2,1.3-0.2,1.8C137.5,270.9,135.9,267.5,134.4,264.2 M138.6,276.9c0,0.4-0.2,0.7-0.2,0.9
	c-1.1-2.4-2.2-4.7-3.1-7.3c0-0.2-0.2-0.4-0.2-0.5c-0.2-0.4,0-0.7-0.2-1.1C136.3,271.6,137.4,274.4,138.6,276.9 M132.6,264
	c0.5,0.9,0.9,2,1.3,2.9c0,0.4,0,0.5,0,0.7c-0.5-1.1-0.9-2-1.5-3.1C132.8,264.4,132.6,264.2,132.6,264 M133.4,259.8
	c0,0.9,0.2,1.6,0.2,2.4c-0.5-0.9-0.9-2-1.5-3.1c0-0.7-0.2-1.6-0.2-2.4C132.3,257.8,132.8,258.9,133.4,259.8 M131.4,252.8
	c0-0.7-0.2-1.5-0.2-2.4c0.5,1.1,1.1,2.2,1.5,3.3c0,0.5,0.2,1.3,0.2,1.8C132.3,254.8,131.9,253.7,131.4,252.8 M133.2,255.3
	c1.1,2.4,2.2,4.7,3.3,7.3c0,0,0,0-0.2,0c-0.2-0.4-0.4-0.7-0.7-1.3c-0.5-1.1-1.3-2.4-1.8-3.6c-0.2-0.2-0.4-0.5-0.4-0.7
	c0-0.2,0-0.5-0.2-0.9C133.4,255.8,133.2,255.5,133.2,255.3 M139,277.8c0.2,0.4,0.4,0.9,0.7,1.5c0,0.4-0.2,0.7-0.2,1.1
	c-0.2-0.5-0.4-0.9-0.7-1.5C139,278.5,139,278.2,139,277.8 M139.5,275.5c0-0.2-0.2-0.2-0.2-0.4c0-0.2,0-0.7,0.2-0.9
	c0-0.4,0-0.7,0.2-0.9c0.2,0.4,0.4,0.9,0.7,1.5c0,0.5-0.2,1.3-0.2,1.8C139.9,276.2,139.7,275.8,139.5,275.5 M109.7,215.7
	c-0.2,0-0.2-0.4-0.2-0.4c0-0.2-0.2-0.2,0-0.4l0.2,0.2c0.2,0.5,0.4,0.9,0.5,1.5c1.6,4,3.3,8,4.9,12
	C113.4,224.4,111.6,220.1,109.7,215.7 M115.7,223.3c-0.7-1.5-1.5-3.1-2.2-4.7c-0.5-1.3-1.3-2.7-1.8-4c0,0,0-0.2-0.2-0.4
	c0-0.2,0-0.2,0.2-0.2c0.2,0.2,0.2,0.4,0.2,0.5c2,4.2,4,8.4,5.8,12.7c2.7,5.8,5.4,11.6,8.2,17.6c0.5,1.3,1.3,2.5,1.8,3.8
	c0,0.2,0.2,0.4,0.4,0.5c0,0.2,0,0.4,0,0.5c0,0.5,0.2,1.1,0.2,1.6C124.1,242,119.9,232.8,115.7,223.3 M129,229.1
	c0.2,0.2,0.2,0.5,0.2,0.9c0-0.7-0.2-1.5-0.2-2.2c-0.4-2.9-0.7-5.6-0.9-8.5c-0.2-0.9,0-2,0.5-2.9c0.4-0.7,1.3-1.3,2.2-1.3
	c1.5,0,2.7,2,3.3,3.1c0.4,0.7,0.5,1.5,0.9,2.4c0.2,0.7,0.4,1.6,0.7,2.4c0.9,3.3,1.8,6.5,2.5,10c0.7,3.5,1.5,6.9,2,10.5
	c0.5,3.1,0.9,6.2,1.5,9.4c0,0.4,0.2,0.9,0.2,1.3s0,0.5-0.2,0.9c-0.5,4.4-1.1,9.1-1.6,13.4c-2-4.2-4.2-8.7-6.2-13.1
	c-0.2-0.4-0.4-0.5-0.4-0.9c-0.2-0.4-0.2-0.9-0.2-1.5c-0.4-3.3-0.9-6.7-1.3-10c-0.5-4-1.1-7.8-1.5-11.8c0,0.9,0.2,1.8,0.4,2.7
	c0.7,6.4,1.5,12.7,2.2,19.3c-0.4-0.9-0.9-1.8-1.3-2.9c0-0.2-0.2-0.4-0.2-0.4c0-0.2,0-0.4,0-0.7c-0.4-3.3-0.7-6.5-1.1-9.8
	C129.5,236.2,129.2,232.6,129,229.1 M119.7,254.9c0.2,0.4,0.5,1.1,0.5,1.5c3.5,8.4,6.9,16.7,10.5,25.1c0.5,1.1,0.9,2.2,1.5,3.5
	c0,0.2,0.2,0.4,0.2,0.5c0,0.4,0,0.5,0.2,1.1c-4.2-10.5-8.5-20.7-12.7-31.1C119.7,255.1,119.7,255.1,119.7,254.9
	C119.6,254.9,119.6,254.8,119.7,254.9 M125.4,338.1c0.4-0.4,0.7-0.9,1.3-1.3c0.4,0.2,0.7,0.2,0.9,0.4c0,0,0,0.2-0.2,0.2
	c-0.4,0.5-0.9,0.9-1.5,1.5c-0.2-0.2-0.5-0.2-0.9-0.4C125,338.3,125.4,338.1,125.4,338.1 M124.5,338.1l-0.2,0.2
	C124.3,338.1,124.5,338.1,124.5,338.1c0.4-0.5,0.9-0.9,1.3-1.5C125.5,337,125,337.6,124.5,338.1 M119.6,254.8c0,0-0.2-0.2-0.2-0.4
	l0,0C119.6,254.6,119.6,254.8,119.6,254.8 M119.4,254.4L119.4,254.4L119.4,254.4 M119.4,254.2C119.4,254.4,119.4,254.2,119.4,254.2
	L119.4,254.2 M119.2,254L119.2,254C119.2,253.8,119.2,254,119.2,254 M119.2,253.8L119.2,253.8L119.2,253.8 M119.2,253.7
	C119.2,253.8,119.2,253.7,119.2,253.7L119.2,253.7 M119,253.5L119,253.5C119,253.3,119,253.5,119,253.5 M119,253.5
	C119,253.7,119,253.5,119,253.5L119,253.5 M121.9,278.4c1.5,2.9,2.5,6.2,3.8,9.3c-0.7-1.5-1.5-2.9-2.2-4.4s-1.3-3.1-2-4.5
	c-1.3-3.1-2.5-6.2-3.8-9.3C119.2,272.4,120.5,275.3,121.9,278.4 M118.3,281.1c0.7,1.6,1.5,3.3,2.2,4.7c0.7,1.6,1.5,3.3,2,4.9
	c-2.5-4.2-5.1-8.7-7.4-13.1c-0.4-0.7-0.9-1.5-1.3-2.2c-0.4-0.7-0.7-1.6-1.1-2.4c-2.7-6.5-5.4-12.9-8-19.6c0-0.2,0.2,0.2,0.2,0.2
	c1.5,2.9,2.9,6,4.4,8.9c1.6,3.1,3.1,6.2,4.5,9.3C115.4,274.7,116.8,277.8,118.3,281.1 M103.2,217.5c0.9,2.2,1.8,4.5,2.7,6.9
	c0.2,0.4,0.2,0.7,0.4,0.9c-0.9-2.7-1.8-5.3-2.9-8h0.2c2.5,5.8,5.1,11.4,7.6,17.4c-0.4,0.2-0.7,0.4-1.1,0.5c-0.9-2.2-1.8-4.4-2.7-6.5
	c-0.4-0.7-0.5-1.5-0.9-2.2c-0.5-1.5-1.3-2.9-2-4.4C103.8,220.8,103.2,219.3,103.2,217.5L103.2,217.5z M102.1,217.9L102.1,217.9
	c2.4,5.4,4.7,10.9,7.1,16.5c0,0.2,0.2,0.5,0.4,0.9v0.2c0,0.2,0,0-0.2,0.2c-0.2,0-0.2,0-0.2-0.2c-0.2-0.2-0.2-0.7-0.4-0.9
	C106.8,228.8,104.5,223.3,102.1,217.9 M97.8,251.3c0.2,0.2,0.2,0.4,0.2,0.4c0.5,1.1,1.3,2.2,1.6,3.3c0.5,1.3,1.1,2.7,1.6,4
	C100.1,256.4,99,253.8,97.8,251.3 M100.1,255.3L100.1,255.3c1.5,2.7,3.1,5.6,4.5,8.4c0.2,0.5,0.5,0.9,0.7,1.5
	c4.7,11.4,9.6,23.2,14.9,34.3c0.4,0.9,0.9,1.8,1.3,2.7c0,0,0.2,0.2,0,0.2c-0.2,0-0.2-0.2-0.4-0.2
	C113.7,286.9,106.8,271.1,100.1,255.3 M103.9,307.2c0.7,0.4,1.6,0.7,2.4,1.1c4.7,2.2,9.4,4.4,14.2,6.5l-4,2.5
	c-0.5-0.2-0.9-0.4-1.5-0.7c-1.6-0.7-3.3-1.5-5.1-2.2c-1.1-0.5-2.2-0.9-3.5-1.5c-3.3-1.5-6.7-3.1-9.8-4.7c-0.7,0.2-1.6,0-2.4-0.4
	c-2-0.7-3.8-1.6-5.4-2.5c-0.2,0-0.4-0.2-0.4-0.2c-1.6-0.9-3.3-1.6-4.9-2.5c-0.5-0.4-1.3-0.5-1.8-0.9l0,0c6.7,1.5,13.3,2.9,19.6,4.7
	C102.1,306.7,103,307.1,103.9,307.2 M119.2,321.8c-0.5-0.2-1.1-0.4-1.8-0.7c-0.5-0.2-0.9-0.4-1.5-0.5c0.2,0,0.2,0,0.4-0.2
	C117.4,320.7,118.3,321.2,119.2,321.8 M87.6,295.8c0.2,0,0.4,0.2,0.7,0.2c0.2,0.2,0.5,0.2,0.7,0.2c0.2,0,0.4,0.2,0.4,0.4
	c0.4,0.4,0.9,0.7,1.3,1.1c-1.3-0.5-2.7-1.3-4-1.8C87,296,87.4,295.8,87.6,295.8 M75.2,294.2c1.1,0.5,2.2,1.1,3.5,1.6
	c3.5,1.5,6.7,3.1,10.2,4.7c-5.6-1.1-11.3-2.2-17.1-3.3c-0.4,0-0.7-0.2-1.1-0.2c-0.2,0-0.4-0.2-0.5-0.4l11.8,0.9c0,0-6.4-2.9-13.6-6
	c0.5,0.2,1.1,0.4,1.6,0.5c0.7,0.2,1.3,0.4,1.8,0.5C73.1,293.1,74.1,293.6,75.2,294.2 M62.3,284.5c3.1,1.1,6.2,2.2,9.1,3.3
	c-0.4,0-0.7-0.2-1.3-0.4c-1.3-0.4-2.5-0.7-3.8-1.1c0.2,0,0,0,0.2,0c-0.5-0.2-0.7-0.2-1.1-0.4c-0.5,0-1.1-0.2-1.5-0.2
	c-0.4-0.2-0.7-0.4-1.3-0.5c-0.2-0.2-0.4-0.2-0.5-0.2c-0.5-0.2-1.1-0.5-1.8-0.7c-0.4-0.2-0.9-0.4-1.3-0.5
	C60.2,283.6,61.4,284.2,62.3,284.5 M81.4,306.7c0.9,0.5,2.2,1.1,3.1,1.8c-2-0.9-4.2-1.8-6.2-2.7c-6.2-2.7-12.5-5.3-18.9-8
	c0.4,0,0.7,0.2,1.3,0.2l0,0l4.4,0.9c0.7,0.4,1.5,0.7,2.4,0.9c0.5,0.2,1.3,0.2,2,0.2c0.5,0,1.3,0,1.8,0.2l4.9,3.3l0.5,0.2l0,0l0,0
	l10.5,4.4l11.4,5.3c-5.8-2.4-11.6-4.7-17.4-7.1C81.2,306.5,81.4,306.7,81.4,306.7 M88.7,325.8c0.4,0,0.9,0.2,1.3,0.4
	c1.3,0.4,2.5,0.7,3.8,1.1c0,0,0,0-0.2,0c-0.9-0.2-1.6-0.4-2.5-0.7C90.1,326.3,89.4,325.9,88.7,325.8 M91.2,326.7
	c6.4,1.8,12.9,3.6,19.3,5.6v0.2c-0.2,0.2-0.7,0.5-0.9,0.7C103.4,330.9,97.4,328.9,91.2,326.7L91.2,326.7 M97.8,335.9
	c2.2,0.5,4.4,1.3,6.7,1.8c-0.2,0.2-0.2,0.2-0.4,0.4C101.9,337.4,99.8,336.7,97.8,335.9 M108.7,341.4c-7.6,6.2-15.1,12.2-22.7,18.3
	l0,0c2.5-2.4,4.9-4.9,7.4-7.3c0.4-0.4,0.7-0.7,1.3-1.3c0.4-0.4,0.9-0.7,1.3-1.3c1.6-1.6,3.3-3.3,4.9-4.9c1.3-1.3,2.5-2.4,3.8-3.6
	c0.4-0.4,0.9-0.7,1.3-1.1C106.8,340.7,107.7,340.8,108.7,341.4C108.8,341.2,108.7,341.2,108.7,341.4 M110.1,340.1
	c-0.9-0.4-2-0.7-2.9-0.9c0-0.2,0.4-0.4,0.4-0.5c1.1,0.4,2.2,0.5,3.3,0.9C110.7,339.8,110.5,339.9,110.1,340.1 M108.1,324.5
	c-8.5-2.7-17.1-5.3-25.6-8.2c11.4,3.5,22.9,6.9,34.1,10.5c-0.2,0.2-0.2,0.2-0.5,0.2c-0.5-0.2-1.1-0.4-1.6-0.5
	C112.3,325.8,110.1,325,108.1,324.5 M112.6,334.1c0-0.2,0.2-0.2,0.2-0.2c0.2-0.2,0.5-0.5,0.7-0.7l0,0c1.3,0.4,2.5,0.7,3.8,1.1
	c-0.5,0.4-0.9,0.7-1.5,1.1C114.8,334.8,113.7,334.5,112.6,334.1 M114.3,341.6c0.4-0.4,0.5-0.5,0.9-0.7c0.4,0.2,0.9,0.2,1.3,0.4
	c-0.2,0.4-0.5,0.5-0.7,0.9C115.2,341.9,114.6,341.7,114.3,341.6 M69.8,410.4c2.4-2,4.7-4,7.1-6c8-6.9,15.8-13.8,23.8-20.7
	c-0.5,0.9-1.3,1.8-2,2.9c-0.2,0.2-0.2,0.4-0.2,0.4c-0.2,0.2-0.4,0.4-0.5,0.5c-2.7,2.4-5.6,4.7-8.4,7.1c0.4-0.4,0.9-0.5,1.3-0.9
	c-1.8,1.5-3.5,3.1-5.3,4.5c-5.4,4.4-11.1,8.7-16.5,13.1C69.1,410.9,69.4,410.6,69.8,410.4 M73.2,408.4c-2.4,2-4.7,4-7.1,6l-0.2,0.2
	c0-0.2,0-0.4,0-0.4c0-0.2,0.2-0.2,0.2-0.2c0.2-0.2,0.4-0.2,0.5-0.4s0.4-0.2,0.5-0.4c2.4-1.8,4.9-3.8,7.3-5.8
	C74,407.9,73.6,408,73.2,408.4 M74.5,407.3C74.3,407.5,74.5,407.3,74.5,407.3 M90.1,395.7c-2,1.6-4,3.3-6,4.9
	c-2.7,2.2-5.3,4.4-8,6.5c0.4-0.4,0.7-0.5,0.9-0.7c1.1-0.7,2-1.6,2.9-2.4c1.3-1.1,2.5-2.2,3.8-3.3c1.3-1.1,2.5-2.4,3.8-3.3
	c1.3-1.1,2.7-2.2,4.2-3.1C91.4,394.6,90.7,395.1,90.1,395.7 M89.9,395.3c0-0.2,0.2-0.2,0.4-0.4c0.9-0.7,1.8-1.6,2.9-2.4
	c0.9-0.7,2-1.6,2.9-2.4c0,0.2-0.4,0.4-0.5,0.5C93.8,392.2,91.8,393.9,89.9,395.3 M95.2,396.8c0.4-0.5,0.7-1.1,1.3-1.6
	c0.2-0.2,0.2-0.4,0.4-0.5c0.2-0.2,0.4-0.2,0.5-0.4c1.1-0.9,2.4-1.8,3.5-2.7C99,393.1,97.2,395,95.2,396.8 M99.4,364.1
	c-0.2,0.2-0.4,0.4-0.5,0.5c0,0,0.2-0.2,0.2-0.4c0.7-0.7,1.5-1.5,2.2-2.2c0.4-0.4,0.9-0.7,1.3-1.3c1.6-1.6,3.3-3.3,4.9-5.1
	c2-2.2,4-4.2,6-6.4c0.4-0.4,0.9-0.9,1.3-1.3c0.4-0.4,0.7-0.9,1.3-1.3c0.5-0.7,1.3-1.3,1.8-1.8c0.2-0.2,0.4-0.5,0.5-0.5
	c0,0,0.2,0,0.4,0.2c-1.1,1.3-2.4,2.5-3.5,3.8c1.3-1.3,2.5-2.5,3.8-3.8c0.4,0.2,0.5,0.2,0.9,0.4c-1.3,1.5-2.5,2.5-3.8,4
	c0,0.2-0.2,0.2-0.2,0.4s-0.2,0.2-0.2,0.4c-0.2,0.2-0.4,0.4-0.5,0.5C109.7,354.6,104.5,359.4,99.4,364.1 M121.7,335.6
	c-0.4,0.4-0.9,0.9-1.3,1.3c-0.2,0-0.2,0-0.4-0.2c0.5-0.5,1.1-0.9,1.6-1.3l0,0C121.9,335.4,121.7,335.6,121.7,335.6 M121.9,342.8
	c0,0.2-0.2,0.2-0.2,0.4c-0.2,0.2-0.5,0.5-0.7,0.7c-0.4,0-0.5-0.2-0.9-0.4c-0.2,0,0,0,0-0.2c0.2-0.4,0.5-0.5,0.9-0.9
	C121.4,342.5,121.5,342.7,121.9,342.8 M120.3,342.3h0.2c-0.4,0.4-0.5,0.7-0.9,1.1c-0.2,0-0.2,0-0.2,0c0-0.2,0.2-0.2,0.2-0.2
	C119.9,342.8,120.1,342.5,120.3,342.3 M111.6,375.9c-0.2,0.4-0.5,0.5-0.9,0.7c-0.9,0.7-1.8,1.5-2.5,2.2c0.2-0.4,0.4-0.5,0.5-0.9
	c0-0.2,0.2-0.2,0.2-0.4c0.2-0.2,0.4-0.4,0.7-0.5C110.1,376.8,110.8,376.4,111.6,375.9 M121.9,369.2c-5.3,4.2-10.5,8.4-15.8,12.5
	c0.4-0.5,0.7-1.1,1.3-1.5c1.6-1.5,3.5-3.1,5.3-4.5c0.5-0.5,1.3-1.1,2-1.6c2.9-1.8,5.6-3.8,8.4-5.6
	C122.5,368.6,122.1,368.8,121.9,369.2 M123.5,329.2c-1.5-0.4-2.9-0.9-4.2-1.3c-0.2,0,0.2-0.2,0.2-0.2
	C121,328.1,122.5,328.7,123.5,329.2C123.7,329,123.7,329.2,123.5,329.2 M123.7,320.3c0,0-0.4-0.2-0.5-0.2c-1.3-0.4-2.4-0.7-3.6-1.3
	c1.3-0.5,2.7-1.3,3.8-1.8c0.4,0.7,0.7,1.6,1.1,2.4c0,0.2-0.2,0.2-0.4,0.4C124.1,320,123.9,320.1,123.7,320.3 M123.9,364.1
	L123.9,364.1c0.5-0.5,0.9-0.9,1.5-1.3c1.3-1.1,2.7-2.2,4.2-3.3c-0.4,0.4-0.5,0.5-0.9,0.9c3.5-2.9,7.1-6,10.5-8.9
	c0.5,0.2,0.9,0.4,1.5,0.5C135.2,356.1,129.5,360.1,123.9,364.1 M143.3,349.6c-0.5,0.5-0.9,1.1-1.5,1.5c-0.5-0.2-0.9-0.4-1.5-0.5
	c0.5-0.5,1.3-1.1,1.8-1.6c0.4,0.2,0.9,0.2,1.3,0.4C143.5,349.4,143.3,349.4,143.3,349.6 M142.4,286.7c0-0.2-0.2-0.4-0.2-0.5
	c0-0.2,0-0.4,0-0.7c0-0.2,0-0.5,0-0.7c1.3,2.5,2.4,5.1,3.5,7.4c0,0.9,0.2,1.8,0.2,2.7C144.8,292.2,143.5,289.4,142.4,286.7
	 M155.5,365.2c0,0.9,0,1.8,0,2.7c-1.5-2.7-2.7-5.4-4.2-8.2c0.2,0.2,0.4,0.4,0.5,0.7C153.2,361.9,154.4,363.5,155.5,365.2
	 M151.5,351.7c0.2,0.4,0.4,0.9,0.5,1.3c-0.4-0.5-0.7-0.9-1.1-1.5C151.2,351.7,151.3,351.7,151.5,351.7 M148.8,290.7
	c0.4,0.7,0.7,1.6,1.3,2.5c0,0.2,0,0.5,0,0.9c-0.4-0.9-0.7-1.8-1.3-2.7C148.8,291.1,148.8,290.9,148.8,290.7 M149.3,296.2
	c-0.2-0.2-0.4-0.5-0.4-0.7c0-0.2,0-0.5,0-0.9c0-0.7,0-1.6-0.2-2.4c0.2,0.5,0.5,1.3,0.9,1.8c0.2,0.2,0.4,0.5,0.4,0.7
	c0,0.4,0,0.9,0,1.3c0,0.2,0,0.4,0,0.4c0,0.2-0.4,0.4-0.5,0.4C149.5,296.7,149.5,296.3,149.3,296.2 M149.7,357.4
	c0.2,0,0.2,0.2,0.4,0.4c0,0.2,0.2,0.2,0.4,0.4c0,0.2,0,0.4,0.2,0.4c0.2,0.4,0.4,0.9,0.5,1.3C150.4,359,150.1,358.3,149.7,357.4
	 M153.2,373.7c-0.4-0.7-1.1-2.5-1.8-4.9c-0.2-0.9-0.4-1.6-0.5-2.5c1.5,2.5,2.9,5.6,4.4,8.4c0.2,0.4,0.4,0.7,0.5,1.3l0,0
	c0,0.4,0,0.9,0,1.3c0,0.5,0,1.1,0,1.6C154.8,376.8,153.7,374.6,153.2,373.7 M188.2,409c0.4,0.5,0.9,1.3,1.3,1.8
	c1.3,1.6,2.5,3.3,3.6,4.9c0.5,0.9,1.3,1.6,1.6,2.7c0,0.2-0.2-0.2-0.2-0.2c-1.3-1.5-2.5-2.9-3.6-4.4c-1.3-1.6-2.2-3.6-3.3-5.4
	C187.8,408.6,188,408.8,188.2,409 M171.5,343c2,0.5,4.2,1.1,6.2,1.6l-0.2,0.2C175.5,344.3,173.5,343.6,171.5,343 M174.6,353
	c-0.9-0.2-1.6-0.5-2.5-0.7c-0.4-0.7-0.7-1.3-1.1-2c0.9,0.4,1.8,0.5,2.7,0.7C174,351.7,174.4,352.3,174.6,353 M174.9,339.8
	C174.9,339.8,175.1,339.8,174.9,339.8c-2-0.5-4-1.3-6-1.8c-0.2-0.4-0.4-0.7-0.5-1.1c0.4,0,0.5,0.2,0.7,0.4
	C171.1,338.1,173.1,338.8,174.9,339.8 M170.8,329.6c-0.5,0.5-1.1,0.9-1.6,1.5c-1.5-0.7-2.9-1.5-4.5-2c-0.5-1.1-0.9-2.2-1.5-3.1
	c0.2-0.4,0.5-0.5,0.9-0.7c2.7,1.1,5.6,2.2,8.4,3.1C172,328.7,171.5,329,170.8,329.6 M167.1,337.4c-0.5-0.2-1.3-0.4-1.8-0.5
	c0.4-0.4,0.5-0.5,0.9-0.9h0.2C166.6,336.3,167,336.8,167.1,337.4 M164.8,335c-0.2,0.2-0.4,0.4-0.7,0.5l-0.2,0.2
	c-0.2-0.5-0.4-0.9-0.5-1.5C163.7,334.7,164.2,334.8,164.8,335 M175.1,325.8c-2.9-0.9-5.8-2-8.5-2.9c-0.2,0,0-0.2,0.2-0.2
	c0.2,0,0.2-0.2,0.4-0.2c2.7,1.1,5.6,2,8.4,3.1C175.3,325.6,175.1,325.8,175.1,325.8 M185.7,328.7c6,2,17.3,6,23.4,8
	c0.2,0,0.4,0.2,0.5,0.2c0.2,0,0.4,0,0.5,0.2c-0.2,0.2-0.5,0.2-0.7,0c-0.2,0-0.4-0.2-0.4-0.2C202.9,334.8,191.7,330.9,185.7,328.7
	L185.7,328.7 M207.1,336.8c0.2,0,0.5,0.2,0.7,0.2c0.5,0.2,1.3,0.5,2,0.7c0.2,0,0.4,0,0.4,0.2c-2.4-0.9-10.2-3.5-12.4-4.4
	c-7.1-2.5-14-4.9-21.1-7.4c0-0.2,0.2-0.2,0.4-0.2C185.1,329,198.7,333.9,207.1,336.8 M226,283.4c-0.4,0.4-0.9,0.7-1.5,1.1
	c-3.6,2.7-7.1,5.4-10.5,8.2c-8,6.4-15.6,12.9-23.2,19.6c-3.6,3.3-7.4,6.4-11.1,9.6c-0.2,0.2-0.2,0.2-0.4,0.2c-2.9-0.9-5.6-2-8.5-2.9
	c0,0,0-0.2,0.2-0.2c0.4-0.4,0.9-0.7,1.3-1.1c1.5-1.3,3.1-2.7,4.5-4c1.1-0.9,2-1.8,3.1-2.7c0.5-0.4,0.9-0.9,1.5-1.3
	c2.5-2.2,5.3-4.4,7.8-6.4c0.5-0.4,1.1-0.7,1.8-1.1C202.2,296,214,289.8,226,283.4 M230.2,277.8c-4,2.2-8,4.2-12,6.4
	c-0.5,0.4-1.1,0.5-1.6,0.9c-3.5,1.8-6.9,3.6-10.2,5.4c0.2-0.2,0.4-0.4,0.7-0.5c3.5-2.4,7.1-4.4,10.7-6.4c1.1-0.5,2-1.1,3.1-1.5
	c1.1-0.5,2-0.9,3.1-1.5C226,279.6,228,278.7,230.2,277.8C230.2,277.6,230.2,277.8,230.2,277.8 M238,264.7c0.4,0,0.7-0.2,1.1-0.2
	c0.7-0.2,1.5-0.2,2.2,0c0.2,0,0.4,0,0.4,0.2c0.2,0,0.4,0,0.5,0s0.5,0.4,0.7,0.5c0.5,0.4,0.9,0.9,1.3,1.5c0.2,0.4,0.4,0.5,0.4,0.9
	s0,0.9,0,1.3c-0.4,2.4-2.4,3.5-4.2,4.4c-0.2,0-0.4,0.2-0.4,0.2c-0.2,0-0.4,0.2-0.5,0.2c-0.2,0.2-0.7,0.4-0.7,0.4
	c-0.2,0-0.4-0.2-0.7-0.2c0.4-0.2,0.9-0.4,1.1-0.5c1.6-0.9,2.9-1.8,4.2-2.9c0.5-0.5,0.9-1.5,0.9-2.4c0-1.1-0.7-2-1.3-2.5
	c-0.2-0.2-0.4-0.5-0.7-0.5c-0.4-0.2-0.7-0.4-1.1-0.4c-1.1-0.2-2.4,0-3.3,0.2c-2,0.4-4,0.9-5.8,1.5c-2.5,0.7-4.9,1.6-7.3,2.5
	C228.7,267.3,233.4,265.6,238,264.7 M218,277.5c0.2-0.2,0.5-0.5,0.5-0.5s-0.2-0.2-0.4-0.5c1.5-0.9,3.1-2,4.7-2.7
	c1.6-0.7,3.5-1.3,5.3-2c2.7-0.9,5.4-1.8,8.4-2.7c0.7-0.2,1.3-0.4,2-0.5c0.4,0,0.7,0,0.9-0.2c0,0,0,0,0,0.2c-0.5,0.5-1.5,0.9-2.2,1.3
	c-1.6,0.9-3.3,1.6-4.9,2.4c-0.9,0.4-1.8,0.7-2.7,1.1c-0.9,0.4-1.8,0.7-2.7,1.1c-2.5,1.1-7.3,3.3-7.6,3.6c-1.8,0.9-3.8,2-5.4,2.9
	c0.5-0.5,1.5-1.3,2.4-2C216.9,278.5,217.4,278,218,277.5 M165.3,310.5c0.7-0.5,1.5-1.3,2-1.6c2.7-2.4,5.3-4.5,8-6.7
	c0.7-0.5,1.3-1.1,2-1.6c2-1.6,3.8-3.5,5.8-5.3c5.1-4.7,10.2-9.3,15.4-14c2.5-2.4,5.1-4.7,7.8-6.9c3.8-3.5,7.8-6.9,11.8-10.2
	c1.5-1.1,2.9-2.2,4.4-3.1c-2.2,3.8-5.4,6.7-8.7,9.4c-0.7,0.5-1.3,1.1-2,1.6c-2.4,2.2-4.9,4.2-7.4,6.4l-0.2,0.2
	c-1.3,1.1-2.7,2.4-4.2,3.6c-2.5,2.2-5.3,4.4-8,6.7c-2.5,2.4-5.3,4.5-7.8,6.7c-1.3,1.1-2.5,2.2-4,3.5c-2.5,2.2-5.3,4.5-7.8,6.7
	c-3.8,3.5-8,6.5-12,10c-0.2,0-0.7-0.2-0.9-0.4c0,0,0,0,0-0.2s0.4-0.2,0.4-0.4C161.7,313.6,163.5,312,165.3,310.5 M162.6,327.9
	c-0.4-0.2-0.9-0.4-1.3-0.5c0.2-0.2,0.5-0.4,0.7-0.5l0,0C162.2,327.2,162.4,327.6,162.6,327.9 M165.3,304.3c-2,2-3.8,3.8-5.6,5.8
	l-0.2,0.2c0,0,0,0.2-0.2,0.2c0,0-0.2-0.2,0-0.2l0.2-0.2c4-3.8,8-7.8,12-11.8C169.5,300.2,167.3,302.3,165.3,304.3 M157,295.3
	c0-0.2,0-0.5,0-0.7c0-0.2,0.4-0.4,0.5-0.5c0.5-0.5,1.1-1.1,1.6-1.5c2.2-2,4.5-4,6.7-6c0.7-0.7,1.5-1.3,2.2-2
	c0.4-0.4,0.7-0.7,1.1-0.9c1.8-1.6,3.8-3.3,5.6-4.9c-2.9,3.1-6,6.4-8.9,9.4c-2.2,2.4-4.5,4.7-6.7,7.1c-0.7,0.7-1.5,1.6-2.2,2.4
	C157,296.9,157,296,157,295.3 M157.1,305.8c0-0.2,0.5-0.7,0.9-0.9c2-2,3.8-4.2,5.8-6.2c0.9-0.9,1.6-1.8,2.5-2.7
	c1.3-1.5,2.7-2.9,4.2-4.4c2-2.2,3.8-4.2,5.8-6.2c0.4-0.4,0.5-0.5,0.9-0.9c2.2-2.4,4.5-4.5,6.9-6.9c1.1-1.1,2.4-2.2,3.5-3.5
	c3.5-3.5,6.9-6.7,10.5-10c0.5-0.5,1.3-1.1,1.8-1.6c1.8-1.6,3.6-3.3,5.4-4.9c1.3-1.1,2.5-2.2,3.8-3.1c1.3-1.1,2.5-2,3.8-3.1l0,0
	c-6.7,7.1-13.6,14-20.5,21.1c-1.6,1.8-3.5,3.5-5.1,5.3c-0.4,0.4-0.5,0.5-0.9,0.9c-0.2,0.2-0.2,0.4-0.4,0.5
	c-8.2,8.2-16.3,16.3-24.7,24.7c-0.9,0.9-1.8,1.6-2.5,2.5c-0.2,0.2-0.4,0.4-0.7,0.7l-0.2,0.2C157.5,306.5,157.1,306.3,157.1,305.8
	L157.1,305.8 M159,354.6l2,2.9c-0.7-0.2-1.3-0.4-2-0.7C159,356.1,159,355.4,159,354.6 M169.5,395.1c0,0.2-0.2-0.2-0.2-0.2
	c-0.7-1.5-1.6-3.1-2.4-4.7c-0.9-1.6-1.6-3.3-2.5-4.9c-1.6-3.3-3.5-6.5-5.1-9.8c0-1.6-0.2-3.5-0.2-5.1
	C162.8,378.4,166.2,386.8,169.5,395.1 M173.9,382.8c-1.1-1.5-2.2-2.9-3.3-4.4c-3.1-4.4-6.4-8.5-9.4-12.9c-0.2-0.4-0.5-0.9-0.7-1.5
	c-0.4-0.9-0.7-1.8-1.1-2.9c0-0.2-0.2-0.4-0.2-0.5c0-0.4,0-0.9,0-1.3c0-0.4,0-0.9,0-1.3c1.1,0.4,2,0.7,3.1,0.9l8.9,12.9
	C171.9,375.5,172.8,379.2,173.9,382.8L173.9,382.8L173.9,382.8 M172.9,353.9L172.9,353.9C172.8,353.7,172.9,353.7,172.9,353.9
	c0.5,0,1.3,0.2,2,0.4c0.2,0,0.5,0.2,0.5,0.4C174.6,354.5,173.9,354.3,172.9,353.9 M186.4,399c-2.4-2.9-4.7-6-7.1-8.9
	c-0.2-0.2-0.4-0.4-0.5-0.5c-0.2-0.2-0.2-0.5-0.4-0.9c-1.1-2.7-2-5.4-2.9-8.2L186.4,399z M180,364.1c-0.7-0.2-1.6-0.5-2.4-0.7
	c-0.5-1.1-1.1-2.2-1.6-3.3c0.9,0.2,1.6,0.5,2.4,0.7C178.9,361.9,179.5,363,180,364.1 M240.7,370.4c0.2-0.2,0.4-0.2,0.5-0.2
	c0.2,0.4,0.2,0.9,0,1.5c0,0.4-0.2,0.9-0.5,1.1c-0.2,0-0.7,0-1.1-0.2c-5.1-1.3-10-2.7-15.1-4c-4-1.1-8-2.2-12-3.3
	c-10.5-2.9-21.3-6-31.8-8.9c-1.1-0.4-2.2-0.5-3.3-0.9c0,0,0,0-0.2,0c-0.4-0.2-0.7,0-0.7-0.4l0,0c1.3,0.4,2.5,0.7,4,1.1
	c4,1.1,7.8,2.2,11.8,3.1c5.3,1.5,10.5,2.7,15.8,4.2c5.3,1.3,10.5,2.7,15.8,4.2c1.3,0.4,2.5,0.7,3.8,1.1c2,0.5,4,1.1,6,1.5
	c0.7,0.2,1.3,0.4,2,0.5c1.3,0.4,2.5,0.9,3.8,1.3c0.2-0.2,0.2-0.4,0.2-0.5c0-0.4-0.4-0.4-0.7-0.4C240,371,240.3,370.8,240.7,370.4
	 M239.2,370.8L239.2,370.8c0.2,0,0.2,0,0.2,0.2C239.4,370.8,239.2,370.8,239.2,370.8L239.2,370.8 M231.1,368.3
	c0.5,0.2,0.7,0.2,1.1,0.4c2.4,0.7,4.7,1.5,7.1,2.2c-0.4,0-0.7,0-1.3-0.2c-0.2,0-0.5-0.2-0.7-0.4c-1.8-0.7-3.8-1.3-5.8-1.8
	c0.5,0.2,1.1,0.4,1.5,0.5c-0.5,0-0.9-0.2-1.5-0.4c-3.5-1.1-6.9-2.2-10.2-3.1c-3.8-1.3-7.8-2.4-11.6-3.6
	C216.7,363.9,223.8,366.1,231.1,368.3 M191.1,356.3c0.5,0.2,1.1,0.4,1.5,0.5c2.5,0.9,5.1,1.8,7.6,2.5c8.2,2.5,16.5,5.1,24.7,7.8
	c-16.2-4.4-32.3-8.9-48.5-13.4c-0.2-0.2-0.2-0.4-0.2-0.5c-0.2-0.5-0.5-0.9-0.7-1.5c2.2,0.5,4.2,1.3,6.4,1.8
	C184.8,354.5,187.8,355.2,191.1,356.3 M198.4,345.7c0-0.4-0.2-0.7-0.4-1.1c11.6-0.4,31.4-0.9,35.4-0.4
	C237.4,344.7,212.2,345.4,198.4,345.7"/>
<path class="st0" d="M329.7,303.1c12,3.6,20,9.3,20,21.8c0,14.9-13.8,24.7-28.5,24.7c-12.7,0-24.5-5.3-31.6-14.3l9.1-10.7
	c6.9,8.2,14.3,11.8,22.9,11.8c6.9,0,13.3-3.3,13.3-9.8c0-5.1-2.7-7.8-9.3-9.6l-13.3-4c-11.1-3.3-18.7-8.9-18.7-20.9
	c0-12.7,11.4-23.4,27.2-23.4c11.6,0,21.3,4.4,27.6,11.1l-8.5,11.3c-5.4-5.6-11.8-9.1-19.3-9.1c-7.1,0-12,3.8-12,9.1
	c0,4.5,3.1,6.9,8.5,8.5L329.7,303.1z M372.6,303.6h0.2c2.5-4.4,8.4-8.2,15.6-8.2c13.8,0,24.7,11.1,24.7,27.1
	c0,15.8-10.9,27.1-24.7,27.1c-7.3,0-13.3-4-15.6-8.4h-0.2v27.4h-14.3v-71.9h14.3V303.6z M385.6,336.7c8,0,13.4-6.7,13.4-14.3
	c0-7.4-5.4-14.3-13.4-14.3c-8,0-13.4,6.7-13.4,14.3C372.2,329.9,377.5,336.7,385.6,336.7 M439.9,317.2l12.2-0.9
	c0-5.3-3.6-8.5-10.9-8.5c-5.4,0-11.1,2.5-14.9,5.3l-4.9-10.5c4.5-3.3,13.3-7.1,22.3-7.1c14.3,0,22.3,8.5,22.3,21.6v31.1h-13.8v-6.5
	h-0.2c-1.6,3.3-7.6,7.8-15.1,7.8c-10.2,0-18-5.6-18-15.8S429.2,318.1,439.9,317.2 M452.1,325.8l-9.6,0.9c-6.2,0.5-10.2,2.2-10.2,6.4
	c0,3.6,3.6,5.6,7.8,5.6c6.5,0,12-4.2,12-11.4V325.8z M491.3,322v26.2H477v-51.4h14.3v8.7h0.2c2-5.4,7.3-9.6,13.3-9.6
	c1.1,0,2.5,0.2,3.5,0.4v14.9c-1.5-0.5-3.5-0.9-5.6-0.9C495.9,310,491.3,314.7,491.3,322 M531.1,322v26.2h-14.3v-78.3h14.3v49.4
	l20-22.5h16.7l-21.4,23.6l22.2,27.8h-17.4L531.1,322z M601.6,320.3h20.3v-4.7h-13.3l12.7-13.6v-5.3h-19.1v4.7h12.2l-12.7,13.6v5.3
	H601.6z M576.3,320.3h5.8v-12.9c0-0.7,0.2-1.6,0.4-2.4s0.5-1.5,1.1-2c0.4-0.5,1.1-1.1,1.6-1.5c0.7-0.4,1.5-0.5,2.5-0.5
	c0.9,0,1.6,0.2,2.4,0.5c0.5,0.4,1.1,0.9,1.3,1.5c0.4,0.5,0.5,1.3,0.7,2c0.2,0.7,0.2,1.5,0.2,2.2v13.1h5.8v-14.7
	c0-1.3-0.2-2.4-0.5-3.5c-0.4-1.1-0.9-2.2-1.6-3.1s-1.6-1.6-2.7-2.2c-1.1-0.5-2.4-0.7-4-0.7c-1.8,0-3.3,0.4-4.5,1.3
	c-1.3,0.9-2.2,2-2.7,3.1h-0.2v-3.8h-5.4V320.3z"/>
</svg>
